<svg width="152" height="152" viewBox="0 0 152 152" fill="none" xmlns="http://www.w3.org/2000/svg">
<g opacity="0.3">
<path fill-rule="evenodd" clip-rule="evenodd" d="M28.4909 78.8238C28.5602 78.3341 28.6304 77.8444 28.7353 77.3547L30.4481 75.6411C31.4267 75.1514 31.4267 75.1514 31.9156 74.6617C32.2448 74.5929 32.5713 74.5114 32.8942 74.4173V73.4379H33.8728V72.4585C34.1874 72.3883 34.5021 72.3189 34.8514 72.2133C35.3403 71.7236 35.3403 71.7236 37.2636 70.745L38.7311 69.2759C39.7097 68.7862 40.1994 68.2965 41.178 67.8076L42.1566 66.8282C44.1138 65.8488 44.6035 65.3599 45.5821 64.8702L46.0718 64.3805C49.3231 62.7718 52.5735 61.1277 55.8595 59.4843C58.7961 58.5049 62.2208 57.0713 63.6891 56.5816C64.0037 56.442 64.3184 56.267 64.6677 56.0919C68.0585 55.2868 71.484 54.4832 74.9095 53.6442C81.7613 52.6648 81.7613 52.6648 86.1647 52.1751H99.8675C103.783 53.1545 103.783 53.1545 105.25 53.6442C106.228 54.1339 107.662 54.6236 108.64 55.1125C109.13 55.2529 109.62 55.4271 110.109 55.6022C110.597 56.0919 110.597 56.0919 111.577 56.5816C115.002 57.5263 115.98 58.0152 116.96 58.2605C117.029 58.5751 117.1 58.8897 117.205 59.2398L117.693 59.7295C118.183 61.1986 118.183 61.1986 119.162 63.1574L121.608 65.6051C122.098 66.5845 122.588 67.0734 123.077 68.0528L123.565 68.5425C124.055 70.0108 124.055 70.0108 124.545 70.9902V75.8856C124.055 77.3547 123.565 78.3341 123.32 78.5793C120.384 78.5793 120.384 78.5793 117.937 78.3341C117.868 78.0186 117.799 77.704 117.692 77.3547L116.225 75.8856C116.084 75.571 115.911 75.2563 115.735 74.9062C115.328 74.4976 114.92 74.0897 114.512 73.6823C114.198 73.5428 113.883 73.3677 113.534 73.1926L112.067 71.7236C110.773 71.0943 109.479 70.4295 108.151 69.7648C107.662 69.2751 107.662 69.2751 106.718 68.7854C106.062 68.6348 105.41 68.4715 104.761 68.2957L104.271 67.806C103.127 67.6573 101.985 67.494 100.845 67.3163C100.531 67.1767 100.217 67.0017 99.8675 66.8266C98.0838 66.687 96.3024 66.512 94.4848 66.3369H82.7392C81.621 66.4765 80.4673 66.6515 79.3137 66.8266H71.029C68.5821 67.3163 64.178 67.806 62.2208 68.2957C59.2842 68.7854 57.327 69.2751 54.3904 69.7648C53.4118 70.2545 45.5821 72.703 44.6035 73.1926C43.1352 73.6823 42.1566 74.172 40.6883 74.6609C39.7097 75.1506 39.7097 75.1506 38.2414 75.6403L37.7517 76.13C36.3189 76.6197 36.3189 76.6197 33.3823 78.0888C32.753 78.2292 32.0891 78.4027 31.4251 78.5785C30.4489 78.6479 29.4695 78.7189 28.4909 78.8238V78.8238ZM42.1582 58.993C41.1768 58.8471 40.198 58.6838 39.2224 58.5033C38.7327 58.0136 38.7327 58.0136 37.7541 57.5239L35.3419 55.1101C34.8475 54.9629 34.3581 54.7996 33.8744 54.6204L33.3847 54.1307C32.895 53.9912 32.4061 53.8161 31.9164 53.6411L31.4267 53.1514C31.112 53.0812 30.7974 53.011 30.4481 52.9061C30.3779 52.5915 30.3077 52.2768 30.2028 51.9267C29.9579 51.6819 29.7132 51.437 29.4687 51.1918C29.1394 51.123 28.8129 51.0412 28.4901 50.9465C28.4199 50.6319 28.3497 50.3173 28.2448 49.9671C27.7551 49.4775 27.7551 49.4774 27.2662 48.4981V45.5607L28.2448 44.5813C28.315 43.952 28.3844 43.2872 28.4901 42.6233C28.8039 42.6935 29.1193 42.7636 29.4687 42.8685H32.8942C33.3839 43.3582 33.3839 43.3582 34.3625 43.8479C35.8308 44.3376 35.8308 44.3376 36.8094 44.8273C37.2783 45.3256 37.7563 45.8154 38.243 46.2964C38.5568 46.436 38.8723 46.611 39.2216 46.7861L40.6891 48.2552C41.0037 48.3254 41.3184 48.3948 41.6677 48.4996V49.479H42.6463V50.4584C43.6249 50.7037 43.6249 50.7037 43.8694 50.9481C44.8488 52.9069 45.3377 53.3966 45.8266 54.3752L46.3163 54.8649V57.7684L45.0924 58.9922L42.1582 58.993ZM125.28 58.5033C124.951 58.4345 124.624 58.3527 124.302 58.2581C124.237 57.9391 124.155 57.6238 124.057 57.3134L123.567 56.8237C123.079 52.4172 123.079 52.4172 123.079 50.4584C124.057 48.4996 124.057 48.4996 124.302 48.2552C124.792 48.185 125.28 48.1148 125.769 48.0099V47.0305C126.083 46.9611 126.399 46.891 126.749 46.7861C127.237 46.2964 128.216 45.8067 128.706 45.317C129.02 45.1766 129.334 45.0024 129.684 44.8273L135.067 39.4414C135.38 39.3712 135.697 39.3019 136.046 39.1962V38.2168C136.36 38.1474 136.674 38.0772 137.024 37.9723L139.471 35.5239C139.785 35.3843 140.1 35.2092 140.449 35.0342L141.917 33.5651H145.308C146.042 34.2992 146.042 34.2992 146.531 35.2786V41.6439C146.672 41.9585 146.845 42.2739 147.021 42.6233V45.5615C146.707 46.1907 146.391 46.8555 146.042 47.5195C145.635 47.9282 145.227 48.3361 144.819 48.7433C143.841 49.233 143.351 49.7227 142.371 50.2124C141.903 50.7109 141.425 51.2007 140.939 51.6815C139.96 52.1712 139.471 52.6609 138.491 53.1506L137.024 54.6197L134.088 56.0887C133.598 56.5784 132.619 57.0681 132.131 57.5224C131.326 57.6619 130.523 57.837 129.683 58.0121C129.369 58.1516 129.055 58.3267 128.705 58.5018C127.587 58.5033 126.433 58.5033 125.28 58.5033V58.5033ZM69.0734 47.2774C67.1162 46.7877 67.1162 46.7877 66.1376 46.298C65.8923 46.0527 65.4034 45.0741 64.9137 44.5844C64.7741 43.7801 64.5991 42.9758 64.424 42.1367L63.9343 41.647C63.7875 41.1524 63.6244 40.6627 63.4454 40.1787C62.9557 39.689 62.466 38.7096 61.9771 38.2199L60.5096 35.2818V31.365C60.6492 31.0503 60.8242 30.7357 60.9985 30.3856C61.0687 29.5813 61.1389 28.7769 61.2438 27.9379C63.8302 28.0073 66.4514 28.0775 69.0734 28.1831C70.052 28.6728 70.052 28.6728 71.0306 28.9173C71.1 29.2319 71.1702 29.5466 71.2751 29.8967L71.7648 30.3864C72.2198 31.8555 72.2198 31.8555 72.7087 32.8341C72.849 33.6384 73.0233 34.4435 73.1984 35.2818C73.3379 35.5964 73.5122 35.911 73.6873 36.2612C73.8276 37.7303 74.0019 39.1993 74.177 40.6676V44.5844C74.0374 44.8991 73.8623 45.2145 73.6873 45.5638L72.4642 46.7877C70.052 47.2774 70.052 47.2774 69.0734 47.2774V47.2774ZM103.294 45.8083C102.489 45.563 101.686 45.3186 100.846 45.0733C100.778 44.7437 100.696 44.4169 100.601 44.0939L100.113 43.6042V38.7081C100.427 37.5891 100.741 36.4346 101.091 35.281C101.58 34.7913 101.58 34.7913 102.558 32.8333L104.026 31.3642C104.515 30.3848 105.005 29.8951 105.495 28.9165C105.74 28.6713 105.74 28.6713 107.172 28.4268C107.243 28.1122 107.312 27.7975 107.417 27.4474L109.62 25.2442C110.597 24.7545 110.597 24.7545 111.087 24.2648C112.381 24.1946 113.673 24.1244 115.002 24.0195C115.072 24.3342 115.143 24.6488 115.248 24.9989L116.225 25.9783V29.4062C115.107 31.6796 113.954 33.953 112.8 36.2604L112.31 36.7501C112.171 37.2398 111.996 37.7295 111.822 38.2192C111.332 38.7089 110.843 39.6882 110.353 40.1779C110.214 40.4926 110.039 40.8072 109.865 41.1566L107.908 43.1153C107.837 43.43 107.767 43.7446 107.662 44.0947C107.349 44.1649 107.032 44.2351 106.719 44.34C106.229 44.8297 105.251 45.3194 104.761 45.8091L103.294 45.8083V45.8083ZM5.87964 114.422H149.499V115.492H5.87964V114.422ZM7.27539 123.428C7.27539 122.52 7.41024 121.757 7.68229 121.141C7.88475 120.688 8.16559 120.275 8.51186 119.92C8.83729 119.578 9.22867 119.305 9.66237 119.118C10.2183 118.881 10.857 118.766 11.5825 118.766C12.8955 118.766 13.9443 119.173 14.7328 119.987C15.5206 120.8 15.9149 121.934 15.9149 123.384C15.9149 124.824 15.523 125.948 14.7407 126.763C13.9592 127.573 12.9144 127.98 11.607 127.98C10.2822 127.98 9.22866 127.576 8.44719 126.769C7.66573 125.958 7.27539 124.845 7.27539 123.428V123.428ZM9.12772 123.368C9.12772 124.375 9.36193 125.141 9.82639 125.663C10.2932 126.183 10.8838 126.442 11.6014 126.442C12.3167 126.442 12.9057 126.185 13.3662 125.666C13.8244 125.15 14.0547 124.375 14.0547 123.342C14.0547 122.322 13.8307 121.56 13.3844 121.057C12.9365 120.554 12.3411 120.304 11.6014 120.304C10.8586 120.304 10.2617 120.558 9.80746 121.066C9.35562 121.576 9.12772 122.341 9.12772 123.368V123.368ZM17.3209 127.829V118.917H20.2054C21.2984 118.917 22.012 118.964 22.3432 119.051C22.8526 119.186 23.2824 119.475 23.627 119.923C23.9708 120.371 24.1435 120.95 24.1435 121.658C24.1435 122.205 24.0442 122.665 23.8446 123.037C23.6669 123.387 23.4075 123.689 23.0884 123.918C22.8089 124.118 22.4923 124.261 22.1571 124.338C21.7281 124.422 21.106 124.467 20.2906 124.467H19.1188V127.828H17.3209V127.829V127.829ZM19.1188 120.425V122.952H20.1021C20.8111 122.952 21.2858 122.908 21.5247 122.814C21.7636 122.72 21.9497 122.575 22.0869 122.376C22.2218 122.176 22.2904 121.946 22.2904 121.683C22.2904 121.358 22.195 121.091 22.0041 120.879C21.8154 120.669 21.5605 120.529 21.2818 120.484C21.0665 120.442 20.6352 120.424 19.9878 120.424H19.1188V120.425V120.425ZM25.6197 127.829V118.917H32.2231V120.425H27.4176V122.401H31.8888V123.901H27.4176V126.327H32.3934V127.828H25.6197V127.829ZM33.9233 127.829V118.917H37.7099C38.6617 118.917 39.3525 118.998 39.7838 119.158C40.2152 119.318 40.5614 119.601 40.8208 120.011C41.0795 120.422 41.208 120.889 41.208 121.416C41.208 122.084 41.0108 122.637 40.6189 123.073C40.2262 123.508 39.638 123.783 38.8565 123.896C39.246 124.123 39.5678 124.373 39.8209 124.644C40.074 124.917 40.4139 125.397 40.8429 126.09L41.9319 127.829H39.7807L38.4811 125.888C38.019 125.195 37.7036 124.761 37.5333 124.579C37.3848 124.414 37.1991 124.287 36.9915 124.208C36.8007 124.142 36.5003 124.108 36.0855 124.108H35.7228V127.829H33.9233V127.829ZM35.7235 122.684H37.0531C37.9157 122.684 38.4551 122.649 38.6704 122.576C38.8757 122.51 39.053 122.377 39.1743 122.199C39.2949 122.02 39.3572 121.798 39.3572 121.53C39.3572 121.229 39.276 120.989 39.1167 120.804C38.9574 120.62 38.7311 120.502 38.4386 120.454C38.2935 120.435 37.8558 120.424 37.1256 120.424H35.7235V122.684V122.684ZM50.9341 127.829H48.9761L48.1986 125.804H44.6374L43.9033 127.829H41.9958L45.4646 118.917H47.3667L50.9341 127.829V127.829ZM47.6221 124.303L46.3944 120.997L45.1918 124.303H47.6221ZM52.9662 127.829V120.425H50.3238V118.917H57.4019V120.425H54.7657V127.829H52.9662ZM57.9768 123.428C57.9768 122.52 58.1116 121.757 58.3836 121.141C58.5858 120.688 58.8667 120.275 59.2132 119.92C59.5386 119.578 59.93 119.305 60.3637 119.118C60.9197 118.881 61.5584 118.766 62.2839 118.766C63.5968 118.766 64.6464 119.173 65.4342 119.987C66.2227 120.8 66.6162 121.934 66.6162 123.384C66.6162 124.824 66.2243 125.948 65.4428 126.763C64.6606 127.573 63.6158 127.98 62.3091 127.98C60.9843 127.98 59.9308 127.576 59.1486 126.769C58.3663 125.958 57.9768 124.845 57.9768 123.428V123.428ZM59.8291 123.368C59.8291 124.375 60.0633 125.141 60.5277 125.663C60.9946 126.183 61.5852 126.442 62.3028 126.442C63.0188 126.442 63.6071 126.185 64.0676 125.666C64.5258 125.15 64.756 124.375 64.756 123.342C64.756 122.322 64.5321 121.56 64.0857 121.057C63.6378 120.554 63.0425 120.304 62.302 120.304C61.56 120.304 60.963 120.558 60.5088 121.066C60.057 121.576 59.8291 122.341 59.8291 123.368V123.368ZM68.0262 127.829V118.917H71.8129C72.7646 118.917 73.4554 118.998 73.8868 119.158C74.3181 119.318 74.6643 119.601 74.9237 120.011C75.1832 120.422 75.3117 120.889 75.3117 121.416C75.3117 122.084 75.1146 122.637 74.7226 123.073C74.3307 123.508 73.7417 123.783 72.9602 123.896C73.3498 124.123 73.6715 124.373 73.9246 124.644C74.1777 124.917 74.5176 125.397 74.9474 126.09L76.0356 127.829H73.8852L72.5856 125.888C72.1228 125.195 71.8081 124.761 71.6378 124.579C71.4893 124.414 71.3036 124.287 71.096 124.208C70.9052 124.142 70.6048 124.108 70.19 124.108H69.8273V127.829H68.0262V127.829ZM69.8257 122.684H71.1552C72.0179 122.684 72.5565 122.649 72.7725 122.576C72.9862 122.504 73.1534 122.378 73.2764 122.199C73.3971 122.02 73.4586 121.798 73.4586 121.53C73.4586 121.229 73.3774 120.989 73.2181 120.804C73.058 120.62 72.8325 120.502 72.5399 120.454C72.3948 120.435 71.9572 120.424 71.2277 120.424H69.8257V122.684V122.684ZM80.409 127.829V118.917H82.2061V127.829H80.409ZM83.9401 127.829V118.917H85.69L89.3355 124.869V118.917H91.0064V127.829H89.2014L85.6111 122.018V127.829H83.9401ZM94.909 127.829V120.425H92.2674V118.917H99.3463V120.425H96.7093V127.829H94.909V127.829ZM100.509 127.829V118.917H107.112V120.425H102.307V122.401H106.778V123.901H102.307V126.327H107.282V127.828H100.509V127.829V127.829ZM108.812 127.829V118.917H112.6C113.551 118.917 114.241 118.998 114.673 119.158C115.104 119.318 115.45 119.601 115.709 120.011C115.969 120.422 116.097 120.889 116.097 121.416C116.097 122.084 115.9 122.637 115.509 123.073C115.116 123.508 114.528 123.783 113.745 123.896C114.135 124.123 114.457 124.373 114.71 124.644C114.964 124.917 115.303 125.397 115.733 126.09L116.822 127.829H114.671L113.372 125.888C112.908 125.195 112.594 124.761 112.423 124.579C112.275 124.414 112.089 124.287 111.882 124.208C111.691 124.142 111.391 124.108 110.975 124.108H110.613V127.829H108.812V127.829ZM110.612 122.684H111.942C112.805 122.684 113.343 122.649 113.559 122.576C113.765 122.51 113.942 122.377 114.063 122.199C114.183 122.02 114.246 121.798 114.246 121.53C114.246 121.229 114.164 120.989 114.006 120.804C113.846 120.62 113.619 120.502 113.327 120.454C113.182 120.435 112.745 120.424 112.015 120.424H110.613V122.684H110.612V122.684ZM117.808 127.829V118.917H119.558L123.203 124.869V118.917H124.876V127.829H123.069L119.479 122.018V127.829H117.808ZM126.776 127.829V118.917H133.378V120.425H128.573V122.401H133.044V123.901H128.573V126.327H133.549V127.828H126.776V127.829ZM137.077 127.829V120.425H134.436V118.917H141.513V120.425H138.878V127.829H137.077ZM142.665 118.917H144.462V123.743C144.462 124.51 144.485 125.007 144.528 125.234C144.606 125.599 144.79 125.891 145.078 126.111C145.368 126.333 145.763 126.443 146.266 126.443C146.777 126.443 147.162 126.339 147.421 126.13C147.681 125.922 147.837 125.665 147.888 125.362C147.941 125.056 147.967 124.553 147.967 123.847V118.917H149.765V123.598C149.765 124.668 149.717 125.425 149.619 125.867C149.536 126.278 149.351 126.663 149.082 126.985C148.821 127.287 148.471 127.53 148.035 127.711C147.598 127.891 147.025 127.98 146.319 127.98C145.469 127.98 144.825 127.883 144.385 127.686C143.946 127.489 143.6 127.234 143.344 126.92C143.103 126.634 142.93 126.297 142.84 125.933C142.722 125.422 142.664 124.668 142.664 123.671V118.917H142.665V118.917ZM10.8484 90.3194V107.18H17.1647V90.3194H25.242V86.2552H2.73328V90.3194H10.8484V90.3194ZM35.9112 107.753C41.9595 107.753 46.5536 105.147 46.5536 99.5574C46.5536 94.0264 41.9981 91.4266 35.9112 91.4266C30.4757 91.4266 25.2696 93.5785 25.2696 99.5574C25.2696 105.147 29.8637 107.753 35.9112 107.753ZM35.9112 104.698C31.7768 104.698 31.3178 101.499 31.3178 99.5566C31.3178 94.7125 34.6101 94.4743 35.9112 94.4743C37.3661 94.4743 40.5054 94.7133 40.5054 99.5566C40.5054 101.47 40.1221 104.698 35.9112 104.698ZM52.7439 91.9935V112.713H58.5626V105.624C60.5151 107.603 63.6922 107.752 64.4579 107.752C70.0086 107.752 73.4152 104.428 73.4152 99.6158C73.4152 94.595 70.0473 91.4266 64.5723 91.4266C63.1947 91.4266 60.5143 91.6347 58.2945 93.8167H58.1802L58.2181 91.9935H52.7439V91.9935ZM58.2945 99.5574C58.2945 95.3126 61.0892 94.4751 62.8493 94.4751C64.5723 94.4751 67.3669 95.3126 67.3669 99.5574C67.3669 102.186 66.1802 104.699 62.8493 104.699C59.4427 104.698 58.2945 102.186 58.2945 99.5574ZM86.5353 94.0864L97.1012 107.18H103.531V86.2552H97.2148V99.257H97.1012L86.5353 86.2552H80.1424V107.18H86.4588V94.0864H86.5353V94.0864ZM124.997 102.786C124.499 104.13 122.737 104.699 121.054 104.699C117.263 104.699 116.421 102.157 116.382 100.693H131.313L131.274 99.8563C131.197 98.0016 130.699 91.4273 121.245 91.4273C114.89 91.4273 110.334 94.2969 110.334 99.5582C110.334 107.303 118.22 107.754 120.786 107.754C124.383 107.754 129.36 107.09 130.89 102.787H124.997V102.786V102.786ZM116.382 98.1514C116.497 96.5972 117.722 94.4751 121.167 94.4751C122.584 94.4751 125.187 94.8939 125.264 98.1514H116.382ZM135.665 95.0429H139.188V103.174C139.188 106.281 140.489 107.603 144.394 107.603C145.657 107.603 147.648 107.423 149.141 107.18V104.13C148.544 104.306 147.925 104.396 147.303 104.4C144.816 104.4 145.007 103.264 145.007 102.338V95.0437H149.141V91.9943H145.007V87.4506H139.188V91.9943H135.666V95.0429H135.665V95.0429Z" fill="black"/>
</g>
</svg>
