<svg width="152" height="152" viewBox="0 0 152 152" fill="none" xmlns="http://www.w3.org/2000/svg">
<g opacity="0.3">
<path fill-rule="evenodd" clip-rule="evenodd" d="M89.6219 101.338H101.073C102.562 94.8401 99.4127 90.1166 103.363 85.9932C96.5502 85.6786 89.6219 89.802 89.6219 101.338ZM87.8879 101.338H76.438C74.9484 94.8401 78.0987 90.1166 74.1472 85.9932C80.962 85.6786 87.8879 89.802 87.8879 101.338ZM31.4167 41.1383V48.7613H21.4548V101.567H12.6387V48.7613H2.2352V41.1383H31.4167Z" fill="black"/>
<path fill-rule="evenodd" clip-rule="evenodd" d="M36.5765 60.9029V83.0496C36.5765 87.7116 35.8447 95.4584 42.2683 95.4584C48.4396 95.4584 47.9618 87.7116 47.9618 83.0496V60.9029H57.9237V84.9643C57.9237 96.87 52.6576 103.115 42.2683 103.115C31.8791 103.115 26.6138 96.87 26.6138 84.9643V60.9029H36.5765ZM115.96 63.6147C118.055 60.358 121.46 58.3874 124.865 58.3874C133.968 58.3874 139.536 69.529 139.536 80.5854C139.536 92.07 134.166 103.212 124.67 103.212C121.396 103.212 117.924 101.328 116.091 97.8983H115.96V116.425H106.792V59.7579H115.96V63.6147V63.6147ZM130.235 80.7565C130.235 75.1001 127.356 69.0148 122.639 69.0148C117.923 69.0148 115.041 75.1001 115.041 80.7565C115.041 86.4136 117.923 92.5849 122.639 92.5849C127.356 92.5849 130.235 86.4136 130.235 80.7565ZM70.8064 101.567V36.299H62.1046V101.567H70.8064ZM145.9 39.3988C147.545 41.054 148.369 43.053 148.369 45.3966C148.369 47.7591 147.545 49.7715 145.9 51.4354C144.252 53.0993 142.253 53.9312 139.902 53.9312C137.55 53.9312 135.55 53.0993 133.905 51.4354C132.268 49.7715 131.448 47.7591 131.448 45.3966C131.448 43.053 132.271 41.054 133.919 39.3988C135.573 37.7349 137.569 36.9022 139.902 36.9022C142.246 36.9022 144.245 37.7349 145.9 39.3988ZM146.88 38.4462C144.957 36.5316 142.631 35.5735 139.902 35.5735C137.191 35.5735 134.879 36.5316 132.965 38.4462C131.041 40.3695 130.08 42.6855 130.08 45.3958C130.08 48.1337 131.032 50.4647 132.939 52.3864C134.852 54.3192 137.172 55.286 139.902 55.286C142.631 55.286 144.956 54.3192 146.88 52.3864C148.803 50.4552 149.765 48.125 149.765 45.3958C149.765 42.6776 148.802 40.3608 146.88 38.4462V38.4462ZM141.364 44.9408C140.963 45.1017 140.358 45.1821 139.552 45.1821H137.835V41.263H139.46C140.515 41.263 141.282 41.397 141.761 41.6659C142.24 41.934 142.479 42.4616 142.479 43.2486C142.479 44.0821 142.107 44.6459 141.364 44.9408V44.9408ZM135.931 50.7785H137.835V46.5108H139.338C140.35 46.5108 141.057 46.6268 141.458 46.8594C142.137 47.2623 142.478 48.0895 142.478 49.3418V50.2005L142.518 50.5491C142.528 50.5948 142.536 50.635 142.546 50.6705C142.554 50.7068 142.562 50.7415 142.572 50.7785H144.355L144.289 50.6437C144.244 50.5538 144.214 50.3661 144.195 50.0807C144.179 49.8126 144.17 49.5441 144.169 49.2755V48.4838C144.169 47.9389 143.972 47.3798 143.578 46.8065C143.185 46.2341 142.563 45.8808 141.715 45.7459C142.385 45.6387 142.908 45.4652 143.284 45.2231C143.99 44.7673 144.344 44.0553 144.344 43.0901C144.344 41.7298 143.785 40.8174 142.666 40.3522C142.039 40.0927 141.057 39.9634 139.714 39.9634H135.931V50.7785V50.7785Z" fill="black"/>
<path fill-rule="evenodd" clip-rule="evenodd" d="M86.1757 65.3438C88.8805 70.9773 83.4725 81.7933 92.7122 82.9193C91.3598 84.9475 86.8531 84.9475 84.1491 84.047C80.5438 83.1457 77.3896 79.9898 76.0364 76.6108C73.5579 70.5263 77.2192 61.0351 73.3324 56.5569C78.9667 56.5561 84.3739 60.1614 86.1757 65.3438Z" fill="black"/>
<path fill-rule="evenodd" clip-rule="evenodd" d="M102.852 56.5564C98.3451 62.4422 103.133 70.8925 100.316 77.6512C99.3308 79.9057 97.894 81.1154 96.0922 81.568C93.6122 82.2438 91.4436 81.4537 90.0084 79.5398C88.0646 76.6671 88.347 66.3866 91.5856 61.7388C94.2603 57.9364 98.3451 56.3309 102.852 56.5564ZM88.0647 65.2976C88.7255 61.1656 89.2317 58.9962 92.2062 57.1786C92.2062 57.1786 91.5343 53.7089 88.0647 51.8905C84.4302 53.8737 83.5919 57.1786 83.5919 57.1786C86.5656 58.9962 87.4038 61.1656 88.0647 65.2976V65.2976Z" fill="black"/>
</g>
</svg>
