<svg width="152" height="152" viewBox="0 0 152 152" fill="none" xmlns="http://www.w3.org/2000/svg">
<g opacity="0.3">
<path fill-rule="evenodd" clip-rule="evenodd" d="M28.5829 55.5931H33.648V61.5181H38.713V65.0726H33.648V73.9589C33.648 76.0324 33.648 77.218 35.4356 77.218H39.011V80.7725C37.5213 81.0687 36.6274 81.0687 35.1377 81.0687C28.8808 81.0687 28.5829 78.9952 28.5829 75.4392V55.5931ZM43.4809 61.5173H48.546V65.0719H48.8439C50.0365 62.9984 52.1221 60.9249 55.9954 60.9249C56.8892 60.9249 57.4851 60.9249 58.081 61.2211V65.9605C56.5913 65.6643 55.6974 65.6643 54.8036 65.6643C52.1221 65.6643 48.5467 66.8491 48.5467 71.293V80.7725H43.4816V61.5173H43.4809V61.5173ZM75.9585 73.0695C75.9585 77.2172 71.4885 78.1051 68.8078 78.1051C67.0201 78.1051 64.6365 77.8089 64.6365 75.1438C64.6365 73.662 65.5304 72.7733 69.4037 72.1809C72.9797 71.8847 74.4695 71.5885 75.9592 70.9961V73.0695H75.9585V73.0695ZM81.0243 67.1453C81.0243 64.7757 80.7263 60.628 70.5947 60.628C64.9337 60.628 61.0597 62.109 60.4645 67.4408H65.2317C65.5296 65.0711 67.3173 64.1825 70.5947 64.1825C73.5742 64.1825 76.2557 64.7749 76.2557 66.8484C76.2557 68.3295 75.3618 68.6257 68.2111 69.2181C64.9337 69.5143 59.272 70.1067 59.272 75.4378C59.272 79.29 62.2515 81.3634 67.3166 81.3634C72.9783 81.3634 75.3618 79.5862 76.5536 78.6968C76.5536 79.5862 76.8516 81.3634 80.129 81.3634C81.9166 81.3634 82.8112 81.0672 83.7043 80.7703V77.2158C83.4064 77.2158 82.5133 77.5105 82.2146 77.5105C81.9159 77.5105 81.0235 77.2158 81.0235 76.3264V67.1453H81.0243V67.1453ZM83.705 61.5173H89.3675L95.0285 75.7354L100.987 61.5173H106.946L98.0072 80.7717H92.3462L83.705 61.5173V61.5173ZM113.203 69.2188C114.098 65.0719 117.374 64.1825 119.759 64.1825C122.143 64.1825 125.42 65.3674 126.314 69.2188H113.203V69.2188ZM131.379 72.1816V71.5885C131.379 65.9605 128.102 60.628 119.461 60.628C112.607 60.628 107.841 64.7749 107.841 71.2923C107.841 76.3279 111.118 81.3642 119.759 81.3642C127.207 81.3642 129.889 77.2172 131.082 75.1438H125.42C124.527 76.6248 123.036 77.8089 119.759 77.8089C114.693 77.8089 113.203 74.5513 113.203 72.1809H131.379V72.1816V72.1816ZM135.55 55.5931H140.616V80.7717H135.55V55.5931Z" fill="black"/>
<path fill-rule="evenodd" clip-rule="evenodd" d="M16.9624 68.6264C16.9624 70.1075 15.7706 71.5885 13.9829 71.5885C12.1952 71.5885 11.0027 70.1075 11.0027 68.6264C11.0027 66.8491 12.1945 65.3681 13.9829 65.3681C15.7706 65.3681 16.9624 66.8491 16.9624 68.6264ZM16.9624 57.9621C16.9624 59.7394 15.7706 60.9249 13.9829 60.9249C12.1952 60.9249 11.0027 59.7401 11.0027 57.9621C11.0027 56.4811 12.1945 55 13.9829 55C15.7706 55 16.9624 56.4811 16.9624 57.9621ZM25.9015 63.2946C25.9015 64.7757 24.7097 66.2567 22.922 66.2567C21.1343 66.2567 19.9426 64.7757 19.9426 63.2946C19.9426 61.5174 21.1343 60.3325 22.922 60.3325C24.7097 60.3325 25.9015 61.5174 25.9015 63.2946ZM75.6606 92.6202C74.7675 95.2868 72.9791 96.4709 70.5955 96.4709C66.7222 96.4709 65.2325 93.8057 65.2325 91.4361C65.2325 88.4732 67.0202 86.1035 70.5955 86.1035C72.9791 86.1035 75.0655 87.2891 75.3627 89.6595H73.575C73.2771 88.474 72.3832 87.5861 70.5955 87.5861C68.212 87.5861 67.3181 89.0671 67.3181 91.1406C67.3181 93.2141 68.212 94.9913 70.5955 94.9913C72.3832 94.9913 73.2771 94.102 73.575 92.6216H75.6606V92.6202V92.6202ZM77.4483 83.4384H79.236V87.8808C80.1305 86.3998 81.6195 86.1035 83.1107 86.1035C85.4928 86.1035 87.282 86.9929 87.282 89.3626V96.1762H85.4928V89.9543C85.4928 88.4732 84.5997 87.5861 82.5141 87.5861C80.7264 87.5861 79.236 88.474 79.236 90.5474V96.1769H77.4483V83.4384V83.4384ZM97.1142 92.324C97.1142 93.8057 95.3265 94.9906 93.2409 94.9906C92.0484 94.9906 91.1553 94.3974 91.1553 93.5095C91.1553 92.324 91.7504 92.0285 93.2409 91.7323H95.3265C96.5176 91.4361 96.8162 91.4361 97.1142 91.1391V92.324V92.324ZM91.4532 89.3626C91.4532 87.8808 92.6443 87.5853 94.4319 87.5853C95.9217 87.5853 97.1142 87.8801 97.1142 89.0664C97.1142 89.9543 96.5176 90.2505 95.6245 90.2505L93.2409 90.5467C90.2607 90.8429 89.0697 91.7323 89.0697 93.5095C89.0697 94.6936 89.9628 96.4709 93.2409 96.4709C94.7306 96.4709 96.5176 95.8792 97.4121 94.6936C97.4121 95.8792 98.0073 96.1754 98.9019 96.1754H100.392V94.6936C100.094 94.6936 99.7964 94.9899 99.7964 94.9899C99.1998 94.9899 98.9019 94.6936 98.9019 94.1005V88.7694C98.9019 86.696 96.5183 86.1028 94.4319 86.1028C91.4532 86.1028 89.962 86.9922 89.6641 89.3619H91.4532V89.3626V89.3626ZM101.881 86.3998H103.669V87.8808C104.562 86.3998 106.053 86.1035 107.542 86.1035C109.926 86.1035 111.714 86.9929 111.714 89.3626V96.1762H109.628V89.9543C109.628 88.4732 108.733 87.5861 106.946 87.5861C105.158 87.5861 103.669 88.474 103.669 90.5474V96.1769H101.881V86.3998V86.3998ZM114.098 86.3998H115.885V87.8808C116.779 86.3998 118.269 86.1035 119.759 86.1035C122.142 86.1035 123.632 86.9929 123.632 89.3626V96.1762H121.844V89.9543C121.844 88.4732 120.95 87.5861 119.162 87.5861C117.374 87.5861 115.885 88.474 115.885 90.5474V96.1769H114.098V86.3998V86.3998ZM127.803 90.2505C128.101 88.7694 129.591 87.5853 131.379 87.5853C133.168 87.5853 134.359 88.4732 134.657 90.2505H127.803ZM136.742 91.733V91.4368C136.742 87.5861 134.06 86.1043 131.379 86.1043C127.505 86.1043 125.718 88.474 125.718 91.1406C125.718 94.102 127.505 96.4716 131.379 96.4716C133.168 96.4716 135.55 95.5837 136.444 93.2141H134.359C133.762 94.3982 132.273 94.9913 131.379 94.9913C129.591 94.9913 127.803 93.8072 127.803 91.7337H136.742V91.733V91.733ZM138.828 83.4384H140.616V96.1762H138.828V83.4384Z" fill="black"/>
</g>
</svg>
