<svg width="152" height="152" viewBox="0 0 152 152" fill="none" xmlns="http://www.w3.org/2000/svg">
<g opacity="0.3">
<path fill-rule="evenodd" clip-rule="evenodd" d="M107.822 77.1206C107.822 75.1176 107.278 73.6919 106.192 72.8095C105.174 71.8924 103.477 71.4177 101.169 71.3838C99.4376 71.3838 97.7738 71.5194 96.1462 71.7907C95.863 71.8298 95.6005 71.9612 95.3994 72.1644C95.2284 72.4275 95.1345 72.7332 95.1282 73.0468V74.3708C95.1282 74.6082 95.2299 74.7107 95.3994 74.7107C97.2498 74.4036 99.1244 74.2671 101 74.303C101.882 74.303 102.798 74.5065 103.681 74.9134C104.258 75.1515 104.529 75.6601 104.529 76.4408L104.462 76.8816C104.428 77.0188 104.326 77.1206 104.122 77.1545L99.1664 78.1386C97.5372 78.4438 96.214 78.9193 95.2638 79.5296C94.3814 80.2425 93.9051 81.2266 93.9051 82.5514C93.8712 83.06 93.9051 83.6034 94.1085 84.1806C94.3475 84.8256 94.6519 85.3682 95.0249 85.7743C95.4333 86.3515 96.214 86.7261 97.2659 86.9973C98.0466 87.133 99.2681 87.2008 100.931 87.2347C102.899 87.3025 104.428 87.2347 105.412 87.0652C106.532 86.8956 107.143 86.6922 107.38 86.4201C107.619 86.1149 107.789 85.8445 107.822 85.5377V77.1206H107.822V77.1206ZM97.2659 82.5514C97.232 82.2107 97.3677 81.8385 97.7068 81.3977C98.0813 80.9893 98.4874 80.7527 98.9298 80.6849L104.496 79.7686V84.1814L103.919 84.317C103.003 84.5205 102.053 84.5883 101.034 84.5544C100.084 84.5544 99.2019 84.4187 98.3873 84.1136C97.6381 83.8399 97.2659 83.3321 97.2659 82.5514V82.5514ZM80.2606 84.2145L79.9893 83.9756L77.477 84.0095L76.1869 83.8738L75.474 83.5347L75.1342 82.8558L75.0664 81.9056V74.5065L75.3723 74.0649H79.3782C79.5817 74.0649 79.7173 73.9631 79.7173 73.7597V71.7228L79.3782 71.3838H75.0671V67.3439C75.0671 67.0388 74.9315 66.9023 74.6256 66.9023H73.1659C72.1818 66.9023 71.6724 67.4118 71.6724 68.4637V81.8362C71.6724 83.5671 72.0801 84.824 72.8939 85.6371C73.8102 86.4516 75.202 86.894 77.0685 86.894H78.3255L79.3774 86.7245L80.1242 86.3838L80.3276 85.7049L80.2606 84.2145V84.2145ZM132.6 71.5194C131.514 71.5194 130.46 71.655 129.409 71.961C128.424 72.1983 127.61 72.606 127.067 73.2164C126.354 73.9631 125.844 74.7777 125.539 75.5592C125.198 76.6782 125.03 77.9691 124.996 79.4279C124.996 80.4136 125.131 81.4995 125.438 82.6531C125.608 83.5694 126.014 84.4179 126.558 85.2325C127.237 86.1488 128.018 86.6929 128.935 86.9295C130.054 87.1669 131.344 87.3364 132.769 87.3703C134.298 87.3703 135.586 87.3364 136.638 87.2686C137.793 87.133 138.403 86.9973 138.471 86.8278C138.572 86.76 138.642 86.4532 138.642 85.9115L138.608 84.5528C138.572 84.2815 138.471 84.1459 138.267 84.1459C136.57 84.3832 134.906 84.485 133.279 84.485C132.566 84.5528 131.954 84.485 131.377 84.3832C130.632 84.2476 130.155 84.112 129.952 83.9409C129.611 83.6696 129.341 83.4322 129.171 83.1618C128.832 82.5845 128.662 82.1421 128.662 81.8031L136.638 80.0043C137.419 79.8348 137.997 79.5974 138.369 79.2576C138.845 78.9185 139.184 78.4769 139.319 77.9683C139.524 77.492 139.626 76.8808 139.626 76.1349C139.592 75.5923 139.49 75.0151 139.285 74.5057C139.048 73.9631 138.71 73.4537 138.199 73.046C137.69 72.6045 136.978 72.2654 136.062 72.0272C134.873 71.7236 133.72 71.5194 132.6 71.5194V71.5194ZM129.341 75.2871C129.646 74.9473 130.054 74.6768 130.632 74.5404C131.548 74.303 132.293 74.2013 132.871 74.2352C133.991 74.1674 134.839 74.3369 135.417 74.7777C135.927 75.1176 136.198 75.6262 136.232 76.1696C136.266 76.4069 136.232 76.7121 136.13 77.018C136.062 77.3232 135.891 77.5606 135.621 77.6954C135.35 77.8665 135.045 77.9683 134.806 77.9683L128.493 79.1558V78.7829C128.459 78.07 128.493 77.3563 128.629 76.6774C128.696 76.306 128.935 75.8297 129.341 75.2871V75.2871ZM111.928 71.4516L109.62 71.5194L109.349 71.5872L109.212 71.7907C109.212 71.8246 109.246 71.8924 109.246 71.9602L114.575 86.3515L114.746 86.7939L115.153 86.8956H118.412L118.819 86.7939L119.09 86.4532L124.624 71.7907C124.556 71.7228 124.419 71.655 124.216 71.5872C123.572 71.5872 122.654 71.5872 121.365 71.6211L121.026 72.1305L117.054 83.7043H116.885L113.05 72.1305L112.641 71.6211L111.928 71.4516ZM88.5421 74.7107C89.3212 74.5017 90.0009 74.3669 90.5103 74.3708C91.4132 74.3779 92.052 74.3882 92.921 74.5065C93.126 74.5349 93.2616 74.3693 93.2261 73.9639C93.1922 73.5914 93.1922 73.2167 93.2261 72.8442C93.2585 72.5059 93.1094 72.2512 92.921 72.0635C92.7192 71.8569 92.4764 71.6949 92.2081 71.588C92.1387 71.5596 92.1064 71.5596 92.0725 71.5541L91.869 71.5202L90.1042 71.4863C89.3575 71.4721 88.4104 71.7055 87.1858 71.9618C85.4225 72.33 83.7421 73.8244 83.146 75.4922C82.7304 76.6553 82.6712 77.8673 82.6712 79.0565V86.5234C82.6712 86.7962 82.773 86.9319 83.0103 86.9319H85.5566C85.8279 86.9319 85.9635 86.7962 85.9635 86.5234V79.0565C85.9635 78.3436 86.0234 77.6623 86.1669 77.0204C86.4524 75.7374 87.3206 75.038 88.5421 74.7107V74.7107ZM143.428 64.6289C142.477 64.6289 142.001 65.1383 142.001 66.1564V86.4871C142.001 86.76 142.103 86.8956 142.342 86.8956H144.888C145.159 86.8956 145.295 86.76 145.295 86.4871V64.9688L144.888 64.6289H143.428ZM13.7336 66.3945C11.4933 66.3945 9.72851 67.0048 8.43842 68.1932C7.25085 69.3477 6.67362 70.8065 6.70753 72.4696C6.70753 73.9631 7.18303 75.1515 8.06543 76.067C8.91392 76.9502 10.3057 77.6276 12.3418 78.1378L18.4516 79.5288C19.1644 79.6321 19.6731 79.8356 19.8773 80.14C20.1493 80.3095 20.3189 80.6494 20.3528 81.1919C20.4206 81.9726 19.7764 82.415 18.4524 82.4489H8.94783C8.26888 82.4489 7.79417 82.6184 7.4882 82.9236C7.18303 83.2304 7.04661 83.7043 7.04661 84.3501V86.5557L7.08052 86.7608L7.4196 86.8625H18.1117C20.725 86.8625 22.694 86.2514 23.9841 85.0977C25.1717 84.0796 25.7828 82.7549 25.8507 81.024C25.7828 79.3609 25.3412 78.0716 24.4927 77.2231C23.5425 76.1711 22.1168 75.4575 20.3181 75.1192L13.971 73.6935C13.5294 73.6596 13.0886 73.4561 12.5792 73.0145L12.3418 72.7764C12.1044 72.6746 12.0366 72.4373 12.0705 72.0296C12.0705 71.588 12.2401 71.2828 12.5799 71.1133C12.7834 70.909 13.1911 70.7734 13.7336 70.7734H23.2374C24.4588 70.7734 25.1039 70.1284 25.1725 68.8722V66.6658C25.1047 66.4623 24.9004 66.3945 24.4935 66.3945H13.7336ZM47.8823 66.3945H41.2694C40.6393 66.3945 39.9911 66.7557 39.5984 67.2391L32.6733 75.7619V66.7162C32.6733 66.4749 32.5337 66.3945 32.3003 66.3945H29.5498C28.3622 66.3945 27.6833 66.8014 27.6833 67.616V86.4217C27.6833 86.6851 27.9932 86.8625 28.2534 86.8625H31.1111C31.9257 86.8625 32.6725 86.4359 32.6725 85.5377V76L39.6702 86.0921C39.9328 86.4706 40.5912 86.8625 41.1416 86.8625H45.2942C45.6853 86.8625 45.9795 86.812 46.1088 86.6236C46.2247 86.4556 46.1829 86.1843 45.9787 85.8815L39.257 75.8983L45.1625 68.2279L52.258 78.1386C52.6318 78.6819 52.8691 79.3262 52.903 80.1408V86.3688C52.903 86.7166 53.1089 86.8617 53.4834 86.8617H56.297C57.1715 86.8798 57.8134 86.4091 57.8923 85.5369V80.14C57.9262 79.6992 58.1635 79.1558 58.5712 78.5447L66.8267 66.9544C67.008 66.6997 67.0696 66.3937 66.6153 66.3937H63.0179C62.2554 66.3937 61.7617 66.5041 61.3209 67.1744L55.5171 75.9992L50.0595 67.4346C49.58 66.6902 48.9815 66.3945 47.8823 66.3945V66.3945Z" fill="black"/>
</g>
</svg>
