<svg width="40" height="40" viewBox="0 0 40 40" fill="none" xmlns="http://www.w3.org/2000/svg">
<g opacity="0.6">
<path d="M30.5 14.0001L28.25 14.3751L29.75 12.5001L27.125 13.2501C23.75 9.50011 18.5 13.6251 20 17.0001C14 17.0001 11 12.5001 11 12.5001C11 12.5001 8.75 15.8751 12.5 18.5001L10.25 17.7501C10.25 20.0001 11.75 21.5001 14.375 22.2501H11.75C13.25 25.2501 15.875 25.2501 15.875 25.2501C15.875 25.2501 13.625 27.1251 9.5 27.1251C21.875 33.1251 29.375 21.8751 28.25 15.8751L30.5 14.0001Z" fill="white"/>
</g>
<circle cx="20" cy="20" r="19.5" stroke="white" stroke-opacity="0.6"/>
</svg>
